<svg id="Layer_1" enable-background="new 0 0 510 510" height="512" viewBox="0 0 510 510" width="512" xmlns="http://www.w3.org/2000/svg"><g><path d="m135 254.924 30 .076.076-30.038h14.924v-30h-14.849l.228-90h-31.238l-70.315 120h71.251zm-18.825-59.962 19.059-32.526-.082 32.526z"/><path d="m401.408 254.924 30 .076.076-30.038h14.924v-30h-14.848l.228-90h-31.238l-70.315 120h71.251zm-18.825-59.962 19.059-32.526-.082 32.526z"/><path d="m255 254.962c24.814 0 45-20.187 45-45v-60c0-24.813-20.186-45-45-45s-45 20.187-45 45v60c0 24.813 20.186 45 45 45zm-15-105c0-8.271 6.729-15 15-15 8.272 0 15 6.729 15 15v60c0 8.271-6.728 15-15 15-8.271 0-15-6.729-15-15z"/><path d="m510 405v-390h-510v390h195v60h-75v30h270v-30h-75v-60zm-30-360v270h-450v-270zm-450 330v-30h450v30c-21.557 0-434.814 0-450 0zm255 90h-60v-60h60z"/></g></svg>